# xmcd
#
# Track frame offsets: 
#        150
#        674
#        15594
#        31355
#        49088
#        63785
#        81921
#        101370
#        119062
#        131437
#        147744
#        163375
#        177642
#        193331
#        215212
#        235300
#        255594
#        274105
#        294725
#        313863
#
# Disc length: 4384 seconds
#
# Revision: 0
# Processed by: cddbd v1.5.2PL0 Copyright (c) Steve Scherf et al.
# Submitted via: ExactAudioCopy v0.99pb4
#
DISCID=39111e14
DTITLE=Various Artist - prevue promo 1044A-3
DYEAR=2000
DGENRE=pop
TTITLE0=blank - data
TTITLE1=Tommy Simms - Alone
TTITLE2=Tonic - Sugar
TTITLE3=Samantha Russell - You Should Go
TTITLE4=Chico Debarge - Sorry
TTITLE5=Sonique - Sky
TTITLE6=Gizelle D'Cole and Elvis Crespo - Come BabyCome
TTITLE7=Robin Fox - I See Stars
TTITLE8=Dr. Dre Feat. Snoop Dogg - The Next Episode 
TTITLE9=Brill - I've Been Real(lyrics)
TTITLE10=Incubus - Pardon Me
TTITLE11=Pilfers - Climbing
TTITLE12=The K.G.B. - Space Cadet
TTITLE13=Little Feat - Sample in a Jar
TTITLE14=Oasis - Where Did It All Go Wrong
TTITLE15=Goudie - Baby Hello
TTITLE16=Def Leppard - 21 Century Sha La La La Girl
TTITLE17=The Deadlights - Sweet Oblivion
TTITLE18=Pantera - Goddamn Electric
TTITLE19=Incubus - Stellar
EXTD=
EXTT0=
EXTT1=
EXTT2=
EXTT3=
EXTT4=
EXTT5=
EXTT6=
EXTT7=
EXTT8=
EXTT9=
EXTT10=
EXTT11=
EXTT12=
EXTT13=
EXTT14=
EXTT15=
EXTT16=
EXTT17=
EXTT18=
EXTT19=
PLAYORDER=
